<svg width="90" height="25" viewBox="0 0 90 25" fill="none" xmlns="http://www.w3.org/2000/svg">
<path d="M0.636719 24.5V0.499999H4.25781V21.3828H15.1328V24.5H0.636719ZM39.1768 12.5C39.1768 15.0625 38.708 17.2656 37.7705 19.1094C36.833 20.9453 35.5479 22.3594 33.915 23.3516C32.29 24.3359 30.4424 24.8281 28.3721 24.8281C26.2939 24.8281 24.4385 24.3359 22.8057 23.3516C21.1807 22.3594 19.8994 20.9414 18.9619 19.0977C18.0244 17.2539 17.5557 15.0547 17.5557 12.5C17.5557 9.9375 18.0244 7.73828 18.9619 5.90234C19.8994 4.05859 21.1807 2.64453 22.8057 1.66016C24.4385 0.667968 26.2939 0.171874 28.3721 0.171874C30.4424 0.171874 32.29 0.667968 33.915 1.66016C35.5479 2.64453 36.833 4.05859 37.7705 5.90234C38.708 7.73828 39.1768 9.9375 39.1768 12.5ZM35.5908 12.5C35.5908 10.5469 35.2744 8.90234 34.6416 7.5664C34.0166 6.22266 33.1572 5.20703 32.0635 4.51953C30.9775 3.82422 29.7471 3.47656 28.3721 3.47656C26.9893 3.47656 25.7549 3.82422 24.6689 4.51953C23.583 5.20703 22.7236 6.22266 22.0908 7.5664C21.4658 8.90234 21.1533 10.5469 21.1533 12.5C21.1533 14.4531 21.4658 16.1016 22.0908 17.4453C22.7236 18.7812 23.583 19.7969 24.6689 20.4922C25.7549 21.1797 26.9893 21.5234 28.3721 21.5234C29.7471 21.5234 30.9775 21.1797 32.0635 20.4922C33.1572 19.7969 34.0166 18.7812 34.6416 17.4453C35.2744 16.1016 35.5908 14.4531 35.5908 12.5ZM59.9336 8.08203C59.707 7.37109 59.4023 6.73437 59.0195 6.17187C58.6445 5.60156 58.1953 5.11719 57.6719 4.71875C57.1484 4.3125 56.5508 4.00391 55.8789 3.79297C55.2148 3.58203 54.4844 3.47656 53.6875 3.47656C52.3359 3.47656 51.1172 3.82422 50.0313 4.51953C48.9453 5.21484 48.0859 6.23437 47.4531 7.57812C46.8281 8.91406 46.5156 10.5508 46.5156 12.4883C46.5156 14.4336 46.832 16.0781 47.4648 17.4219C48.0977 18.7656 48.9648 19.7852 50.0664 20.4805C51.168 21.1758 52.4219 21.5234 53.8281 21.5234C55.1328 21.5234 56.2695 21.2578 57.2383 20.7266C58.2148 20.1953 58.9687 19.4453 59.5 18.4766C60.0391 17.5 60.3086 16.3516 60.3086 15.0313L61.2461 15.207H54.3789V12.2187H63.8125V14.9492C63.8125 16.9648 63.3828 18.7148 62.5234 20.1992C61.6719 21.6758 60.4922 22.8164 58.9844 23.6211C57.4844 24.4258 55.7656 24.8281 53.8281 24.8281C51.6563 24.8281 49.75 24.3281 48.1094 23.3281C46.4766 22.3281 45.2031 20.9102 44.2891 19.0742C43.375 17.2305 42.918 15.043 42.918 12.5117C42.918 10.5977 43.1836 8.87891 43.7148 7.35547C44.2461 5.83203 44.9922 4.53906 45.9531 3.47656C46.9219 2.40625 48.0586 1.58984 49.3633 1.02734C50.6758 0.457031 52.1094 0.171874 53.6641 0.171874C54.9609 0.171874 56.168 0.36328 57.2852 0.746093C58.4102 1.12891 59.4102 1.67187 60.2852 2.375C61.168 3.07812 61.8984 3.91406 62.4766 4.88281C63.0547 5.84375 63.4453 6.91016 63.6484 8.08203H59.9336ZM89.2568 12.5C89.2568 15.0625 88.7881 17.2656 87.8506 19.1094C86.9131 20.9453 85.6279 22.3594 83.9951 23.3516C82.3701 24.3359 80.5225 24.8281 78.4521 24.8281C76.374 24.8281 74.5186 24.3359 72.8857 23.3516C71.2607 22.3594 69.9795 20.9414 69.042 19.0977C68.1045 17.2539 67.6357 15.0547 67.6357 12.5C67.6357 9.9375 68.1045 7.73828 69.042 5.90234C69.9795 4.05859 71.2607 2.64453 72.8857 1.66016C74.5186 0.667968 76.374 0.171874 78.4521 0.171874C80.5225 0.171874 82.3701 0.667968 83.9951 1.66016C85.6279 2.64453 86.9131 4.05859 87.8506 5.90234C88.7881 7.73828 89.2568 9.9375 89.2568 12.5ZM85.6709 12.5C85.6709 10.5469 85.3545 8.90234 84.7217 7.5664C84.0967 6.22266 83.2373 5.20703 82.1436 4.51953C81.0576 3.82422 79.8271 3.47656 78.4521 3.47656C77.0693 3.47656 75.835 3.82422 74.749 4.51953C73.6631 5.20703 72.8037 6.22266 72.1709 7.5664C71.5459 8.90234 71.2334 10.5469 71.2334 12.5C71.2334 14.4531 71.5459 16.1016 72.1709 17.4453C72.8037 18.7812 73.6631 19.7969 74.749 20.4922C75.835 21.1797 77.0693 21.5234 78.4521 21.5234C79.8271 21.5234 81.0576 21.1797 82.1436 20.4922C83.2373 19.7969 84.0967 18.7812 84.7217 17.4453C85.3545 16.1016 85.6709 14.4531 85.6709 12.5Z" fill="#232D42"/>
</svg>
