<svg width="23" height="29" viewBox="0 0 23 29" fill="none" xmlns="http://www.w3.org/2000/svg">
<path d="M19.7075 17.1303C21.4575 17.1303 22.875 18.5478 22.875 20.2978V21.5035H22.8663C22.8068 22.8685 22.4322 24.5783 20.901 25.9748C19.228 27.5025 16.3388 28.5 11.5 28.5C6.6595 28.5 3.772 27.5025 2.099 25.9748C0.56775 24.5783 0.19325 22.8668 0.13375 21.5035H0.125V20.296C0.125 18.5478 1.5425 17.1303 3.2925 17.1303H19.7075ZM5.375 2.25003C4.67881 2.25003 4.01113 2.52659 3.51884 3.01887C3.02656 3.51116 2.75 4.17884 2.75 4.87503V11.875C2.75 12.5712 3.02656 13.2389 3.51884 13.7312C4.01113 14.2235 4.67881 14.5 5.375 14.5H17.625C18.3212 14.5 18.9889 14.2235 19.4812 13.7312C19.9734 13.2389 20.25 12.5712 20.25 11.875V4.87503C20.25 4.17884 19.9734 3.51116 19.4812 3.01887C18.9889 2.52659 18.3212 2.25003 17.625 2.25003H12.375V1.37503C12.38 1.2588 12.3607 1.14281 12.3185 1.03441C12.2763 0.926008 12.212 0.827558 12.1297 0.745298C12.0475 0.663038 11.949 0.598761 11.8406 0.55654C11.7322 0.51432 11.6162 0.495077 11.5 0.500029C11.017 0.500029 10.625 0.902529 10.625 1.37503V2.25003H5.375ZM6.25 8.37503C6.25 7.9109 6.43437 7.46578 6.76256 7.13759C7.09075 6.8094 7.53587 6.62503 8 6.62503C8.46413 6.62503 8.90925 6.8094 9.23744 7.13759C9.56563 7.46578 9.75 7.9109 9.75 8.37503C9.75 8.83916 9.56563 9.28428 9.23744 9.61247C8.90925 9.94066 8.46413 10.125 8 10.125C7.53587 10.125 7.09075 9.94066 6.76256 9.61247C6.43437 9.28428 6.25 8.83916 6.25 8.37503ZM13.25 8.37503C13.25 7.9109 13.4344 7.46578 13.7626 7.13759C14.0908 6.8094 14.5359 6.62503 15 6.62503C15.4641 6.62503 15.9092 6.8094 16.2374 7.13759C16.5656 7.46578 16.75 7.9109 16.75 8.37503C16.75 8.83916 16.5656 9.28428 16.2374 9.61247C15.9092 9.94066 15.4641 10.125 15 10.125C14.5359 10.125 14.0908 9.94066 13.7626 9.61247C13.4344 9.28428 13.25 8.83916 13.25 8.37503Z" fill="#FF4B4B"/>
</svg>
