<svg width="18" height="26" viewBox="0 0 18 26" fill="none" xmlns="http://www.w3.org/2000/svg">
<path d="M4.3125 22.375V24.7188C4.3125 24.9775 4.5225 25.1875 4.78125 25.1875H6.65625C6.78057 25.1875 6.8998 25.1381 6.98771 25.0502C7.07562 24.9623 7.125 24.8431 7.125 24.7188V22.375H8.0625V24.7188C8.0625 24.9775 8.2725 25.1875 8.53125 25.1875H10.4063C10.5306 25.1875 10.6498 25.1381 10.7377 25.0502C10.8256 24.9623 10.875 24.8431 10.875 24.7188V22.375H11.0325C14.7675 22.375 17.4375 20.4381 17.4375 17.0875C17.4375 14.2713 15.5494 12.7319 13.3388 12.5125V12.3475C15.1575 11.8938 16.4944 10.5212 16.4944 8.24125C16.4944 5.36875 14.3381 3.625 11.0475 3.625H10.875V1.28125C10.875 1.15693 10.8256 1.0377 10.7377 0.949794C10.6498 0.861886 10.5306 0.8125 10.4063 0.8125H8.53125C8.40693 0.8125 8.28771 0.861886 8.1998 0.949794C8.11189 1.0377 8.0625 1.15693 8.0625 1.28125V3.625H6.98813V1.28125C6.98813 1.15693 6.93874 1.0377 6.85084 0.949794C6.76293 0.861886 6.6437 0.8125 6.51938 0.8125H4.78125C4.65693 0.8125 4.5377 0.861886 4.4498 0.949794C4.36189 1.0377 4.3125 1.15693 4.3125 1.28125V3.625L0.566254 3.64562C0.441933 3.64562 0.322705 3.69501 0.234797 3.78292C0.146889 3.87083 0.0975037 3.99005 0.0975037 4.11437V5.96875C0.0975037 6.22563 0.303753 6.4375 0.562503 6.4375L1.97813 6.42812C2.34946 6.4306 2.70474 6.57985 2.96644 6.84331C3.22814 7.10676 3.37501 7.46303 3.375 7.83437V18.1562C3.375 18.5292 3.22685 18.8869 2.96312 19.1506C2.6994 19.4143 2.34171 19.5625 1.96875 19.5625L0.566254 19.5831C0.441933 19.5831 0.322705 19.6325 0.234797 19.7204C0.146889 19.8083 0.0975037 19.9276 0.0975037 20.0519V21.9269C0.0975037 22.1856 0.307504 22.3956 0.566254 22.3956L4.3125 22.375ZM6.98813 6.41313H10.2113C11.91 6.41313 12.9075 7.34687 12.9075 8.87313C12.9075 10.5062 11.8294 11.4269 9.38813 11.4269H6.98813V6.41313ZM6.98813 14.0087H10.4381C12.57 14.0087 13.7306 15.0963 13.7306 16.8663C13.7306 18.6531 12.5569 19.585 9.68438 19.585H6.98813V14.0106V14.0087Z" fill="#0BF130"/>
</svg>
