<svg width="18" height="19" viewBox="0 0 18 19" fill="none" xmlns="http://www.w3.org/2000/svg">
<path d="M1 10.0132H7C7.55 10.0132 8 9.56315 8 9.01315V1.01315C8 0.463153 7.55 0.0131531 7 0.0131531H1C0.45 0.0131531 0 0.463153 0 1.01315V9.01315C0 9.56315 0.45 10.0132 1 10.0132ZM1 18.0132H7C7.55 18.0132 8 17.5632 8 17.0132V13.0132C8 12.4632 7.55 12.0132 7 12.0132H1C0.45 12.0132 0 12.4632 0 13.0132V17.0132C0 17.5632 0.45 18.0132 1 18.0132ZM11 18.0132H17C17.55 18.0132 18 17.5632 18 17.0132V9.01315C18 8.46315 17.55 8.01315 17 8.01315H11C10.45 8.01315 10 8.46315 10 9.01315V17.0132C10 17.5632 10.45 18.0132 11 18.0132ZM10 1.01315V5.01315C10 5.56315 10.45 6.01315 11 6.01315H17C17.55 6.01315 18 5.56315 18 5.01315V1.01315C18 0.463153 17.55 0.0131531 17 0.0131531H11C10.45 0.0131531 10 0.463153 10 1.01315Z" fill="#0C81DD"/>
</svg>
