<svg width="27" height="50" viewBox="0 0 27 50" fill="none" xmlns="http://www.w3.org/2000/svg">
<path d="M26.397 33.0636C26.397 35.9096 25.4716 38.3603 23.6208 40.4157C21.77 42.4712 19.3658 43.7407 16.4082 44.2243V49.1071C16.4082 49.3676 16.3245 49.5815 16.1571 49.7489C15.9896 49.9163 15.7757 50 15.5153 50H11.7486C11.5068 50 11.2975 49.9116 11.1208 49.7349C10.9441 49.5582 10.8557 49.349 10.8557 49.1071V44.2243C9.62803 44.0569 8.44221 43.7686 7.29823 43.3594C6.15426 42.9501 5.21025 42.5363 4.4662 42.1177C3.72216 41.6992 3.03391 41.2528 2.40147 40.7785C1.76903 40.3041 1.33655 39.9554 1.10404 39.7321C0.871524 39.5089 0.708763 39.3415 0.615758 39.2299C0.299537 38.8393 0.280936 38.458 0.559954 38.0859L3.43384 34.3192C3.56405 34.1332 3.77796 34.0216 4.07558 33.9844C4.3546 33.9472 4.57781 34.0309 4.74522 34.2355L4.80103 34.2913C6.90296 36.1328 9.163 37.2954 11.5812 37.779C12.2694 37.9278 12.9576 38.0022 13.6459 38.0022C15.1526 38.0022 16.4779 37.6023 17.6219 36.8025C18.7659 36.0026 19.3379 34.8679 19.3379 33.3984C19.3379 32.8776 19.1983 32.3847 18.9193 31.9196C18.6403 31.4546 18.3287 31.064 17.9846 30.7478C17.6405 30.4315 17.0964 30.0828 16.3524 29.7015C15.6083 29.3201 14.9945 29.0225 14.5108 28.8086C14.0272 28.5947 13.2832 28.2924 12.2787 27.9018C11.5533 27.6042 10.9813 27.3717 10.5627 27.2042C10.1442 27.0368 9.57223 26.7904 8.84678 26.4648C8.12134 26.1393 7.54005 25.851 7.10292 25.5999C6.66579 25.3488 6.14031 25.0186 5.52647 24.6094C4.91263 24.2001 4.41505 23.8049 4.03373 23.4235C3.6524 23.0422 3.24783 22.5865 2.82 22.0564C2.39217 21.5262 2.062 20.9868 1.82949 20.4381C1.59697 19.8893 1.40166 19.2708 1.24355 18.5826C1.08544 17.8943 1.00638 17.1689 1.00638 16.4062C1.00638 13.8393 1.91784 11.5885 3.74076 9.65402C5.56367 7.71949 7.93533 6.47321 10.8557 5.91518V0.892857C10.8557 0.651042 10.9441 0.441778 11.1208 0.265067C11.2975 0.0883557 11.5068 0 11.7486 0H15.5153C15.7757 0 15.9896 0.0837054 16.1571 0.251116C16.3245 0.418527 16.4082 0.632441 16.4082 0.892857V5.80357C17.4684 5.91518 18.4962 6.12909 19.4913 6.44531C20.4865 6.76153 21.2956 7.0731 21.9188 7.38002C22.5419 7.68694 23.1325 8.03571 23.6905 8.42634C24.2486 8.81696 24.6113 9.08668 24.7787 9.23549C24.9461 9.3843 25.0856 9.51451 25.1972 9.62612C25.5135 9.96094 25.56 10.3144 25.3367 10.6864L23.0767 14.76C22.9279 15.0391 22.714 15.1879 22.435 15.2065C22.1745 15.2623 21.9234 15.1972 21.6816 15.0112C21.6258 14.9554 21.4909 14.8438 21.277 14.6763C21.0631 14.5089 20.7004 14.2625 20.1889 13.9369C19.6773 13.6114 19.1332 13.3138 18.5566 13.0441C17.98 12.7744 17.2871 12.5326 16.4779 12.3186C15.6688 12.1047 14.8736 11.9978 14.0923 11.9978C12.3252 11.9978 10.8836 12.3977 9.76754 13.1975C8.65147 13.9974 8.09344 15.0298 8.09344 16.2946C8.09344 16.7783 8.17249 17.2247 8.3306 17.6339C8.48871 18.0432 8.76308 18.4291 9.1537 18.7919C9.54433 19.1546 9.9117 19.4615 10.2558 19.7126C10.5999 19.9637 11.1208 20.252 11.8183 20.5776C12.5159 20.9031 13.0786 21.1542 13.5064 21.3309C13.9342 21.5076 14.5853 21.7634 15.4595 22.0982C16.4454 22.4702 17.1987 22.7632 17.7196 22.9771C18.2404 23.191 18.9472 23.5166 19.8401 23.9537C20.7329 24.3908 21.4351 24.7861 21.9467 25.1395C22.4582 25.4929 23.0348 25.958 23.6766 26.5346C24.3183 27.1112 24.8113 27.7018 25.1554 28.3064C25.4995 28.9109 25.7925 29.6224 26.0343 30.4408C26.2761 31.2593 26.397 32.1336 26.397 33.0636Z" fill="#80C8FF"/>
</svg>
