<svg width="22" height="28" viewBox="0 0 22 28" fill="none" xmlns="http://www.w3.org/2000/svg">
<path d="M19.4375 3.6875H16.625V2.75C16.6235 2.25318 16.4255 1.77712 16.0742 1.42581C15.7229 1.0745 15.2468 0.876484 14.75 0.875H7.25C6.75318 0.876484 6.27712 1.0745 5.92581 1.42581C5.5745 1.77712 5.37648 2.25318 5.375 2.75V3.6875H2.5625C2.06568 3.68898 1.58962 3.887 1.23831 4.23831C0.887004 4.58962 0.688984 5.06568 0.6875 5.5625V25.25C0.688984 25.7468 0.887004 26.2229 1.23831 26.5742C1.58962 26.9255 2.06568 27.1235 2.5625 27.125H11V25.25H2.5625V5.5625H5.375V8.375H16.625V5.5625H19.4375V15.875H21.3125V5.5625C21.311 5.06568 21.113 4.58962 20.7617 4.23831C20.4104 3.887 19.9343 3.68898 19.4375 3.6875ZM14.75 6.5H7.25V2.75H14.75V6.5Z" fill="#A4FF0D"/>
</svg>
