<svg width="99" height="42" viewBox="0 0 99 42" fill="none" xmlns="http://www.w3.org/2000/svg">
<path d="M7.786 24.456H17.194V30H0.604V0.515999H7.786V24.456ZM31.2876 30.336C28.9916 30.336 26.9196 29.846 25.0716 28.866C23.2516 27.886 21.8096 26.486 20.7456 24.666C19.7096 22.846 19.1916 20.718 19.1916 18.282C19.1916 15.874 19.7236 13.76 20.7876 11.94C21.8516 10.092 23.3076 8.678 25.1556 7.698C27.0036 6.718 29.0756 6.228 31.3716 6.228C33.6676 6.228 35.7396 6.718 37.5876 7.698C39.4356 8.678 40.8916 10.092 41.9556 11.94C43.0196 13.76 43.5516 15.874 43.5516 18.282C43.5516 20.69 43.0056 22.818 41.9136 24.666C40.8496 26.486 39.3796 27.886 37.5036 28.866C35.6556 29.846 33.5836 30.336 31.2876 30.336ZM31.2876 24.12C32.6596 24.12 33.8216 23.616 34.7736 22.608C35.7536 21.6 36.2436 20.158 36.2436 18.282C36.2436 16.406 35.7676 14.964 34.8156 13.956C33.8916 12.948 32.7436 12.444 31.3716 12.444C29.9716 12.444 28.8096 12.948 27.8856 13.956C26.9616 14.936 26.4996 16.378 26.4996 18.282C26.4996 20.158 26.9476 21.6 27.8436 22.608C28.7676 23.616 29.9156 24.12 31.2876 24.12ZM56.2658 6.228C57.9178 6.228 59.3598 6.564 60.5918 7.236C61.8518 7.908 62.8178 8.79 63.4898 9.882V6.564H70.6718V29.958C70.6718 32.114 70.2378 34.06 69.3698 35.796C68.5298 37.56 67.2278 38.96 65.4638 39.996C63.7278 41.032 61.5578 41.55 58.9538 41.55C55.4818 41.55 52.6678 40.724 50.5118 39.072C48.3558 37.448 47.1238 35.236 46.8158 32.436H53.9138C54.1378 33.332 54.6698 34.032 55.5098 34.536C56.3498 35.068 57.3858 35.334 58.6178 35.334C60.1018 35.334 61.2778 34.9 62.1458 34.032C63.0418 33.192 63.4898 31.834 63.4898 29.958V26.64C62.7898 27.732 61.8238 28.628 60.5918 29.328C59.3598 30 57.9178 30.336 56.2658 30.336C54.3338 30.336 52.5838 29.846 51.0158 28.866C49.4478 27.858 48.2018 26.444 47.2778 24.624C46.3818 22.776 45.9338 20.648 45.9338 18.24C45.9338 15.832 46.3818 13.718 47.2778 11.898C48.2018 10.078 49.4478 8.678 51.0158 7.698C52.5838 6.718 54.3338 6.228 56.2658 6.228ZM63.4898 18.282C63.4898 16.49 62.9858 15.076 61.9778 14.04C60.9978 13.004 59.7938 12.486 58.3658 12.486C56.9378 12.486 55.7198 13.004 54.7118 14.04C53.7318 15.048 53.2418 16.448 53.2418 18.24C53.2418 20.032 53.7318 21.46 54.7118 22.524C55.7198 23.56 56.9378 24.078 58.3658 24.078C59.7938 24.078 60.9978 23.56 61.9778 22.524C62.9858 21.488 63.4898 20.074 63.4898 18.282ZM86.5357 30.336C84.2397 30.336 82.1677 29.846 80.3197 28.866C78.4997 27.886 77.0577 26.486 75.9937 24.666C74.9577 22.846 74.4397 20.718 74.4397 18.282C74.4397 15.874 74.9717 13.76 76.0357 11.94C77.0997 10.092 78.5557 8.678 80.4037 7.698C82.2517 6.718 84.3237 6.228 86.6197 6.228C88.9157 6.228 90.9877 6.718 92.8357 7.698C94.6837 8.678 96.1397 10.092 97.2037 11.94C98.2677 13.76 98.7997 15.874 98.7997 18.282C98.7997 20.69 98.2537 22.818 97.1617 24.666C96.0977 26.486 94.6277 27.886 92.7517 28.866C90.9037 29.846 88.8317 30.336 86.5357 30.336ZM86.5357 24.12C87.9077 24.12 89.0697 23.616 90.0217 22.608C91.0017 21.6 91.4917 20.158 91.4917 18.282C91.4917 16.406 91.0157 14.964 90.0637 13.956C89.1397 12.948 87.9917 12.444 86.6197 12.444C85.2197 12.444 84.0577 12.948 83.1337 13.956C82.2097 14.936 81.7477 16.378 81.7477 18.282C81.7477 20.158 82.1957 21.6 83.0917 22.608C84.0157 23.616 85.1637 24.12 86.5357 24.12Z" fill="#2FA4FF"/>
</svg>
