<svg width="18" height="20" viewBox="0 0 18 20" fill="none" xmlns="http://www.w3.org/2000/svg">
<path d="M17.1212 15.91C16.679 14.8628 16.0374 13.9115 15.2321 13.1092C14.4292 12.3047 13.4781 11.6632 12.4313 11.2202C12.4219 11.2155 12.4126 11.2132 12.4032 11.2085C13.8633 10.1538 14.8126 8.43581 14.8126 6.49753C14.8126 3.28659 12.211 0.685028 9.00006 0.685028C5.78912 0.685028 3.18756 3.28659 3.18756 6.49753C3.18756 8.43581 4.13678 10.1538 5.59693 11.2108C5.58756 11.2155 5.57818 11.2178 5.56881 11.2225C4.51881 11.6655 3.57662 12.3007 2.76803 13.1116C1.96344 13.9145 1.32194 14.8656 0.878965 15.9124C0.443782 16.9372 0.209079 18.0359 0.187559 19.1491C0.186933 19.1741 0.191321 19.199 0.200463 19.2223C0.209605 19.2456 0.223317 19.2668 0.240791 19.2847C0.258264 19.3026 0.279146 19.3169 0.302206 19.3266C0.325265 19.3363 0.350036 19.3413 0.375059 19.3413H1.78131C1.88443 19.3413 1.96646 19.2592 1.96881 19.1585C2.01568 17.3491 2.74225 15.6546 4.02662 14.3702C5.35553 13.0413 7.12037 12.31 9.00006 12.31C10.8797 12.31 12.6446 13.0413 13.9735 14.3702C15.2579 15.6546 15.9844 17.3491 16.0313 19.1585C16.0337 19.2616 16.1157 19.3413 16.2188 19.3413H17.6251C17.6501 19.3413 17.6749 19.3363 17.6979 19.3266C17.721 19.3169 17.7419 19.3026 17.7593 19.2847C17.7768 19.2668 17.7905 19.2456 17.7997 19.2223C17.8088 19.199 17.8132 19.1741 17.8126 19.1491C17.7891 18.0288 17.5571 16.9389 17.1212 15.91ZM9.00006 10.5288C7.92428 10.5288 6.91178 10.1092 6.15006 9.34753C5.38834 8.58581 4.96881 7.57331 4.96881 6.49753C4.96881 5.42175 5.38834 4.40925 6.15006 3.64753C6.91178 2.88581 7.92428 2.46628 9.00006 2.46628C10.0758 2.46628 11.0883 2.88581 11.8501 3.64753C12.6118 4.40925 13.0313 5.42175 13.0313 6.49753C13.0313 7.57331 12.6118 8.58581 11.8501 9.34753C11.0883 10.1092 10.0758 10.5288 9.00006 10.5288Z" fill="#8A92A6"/>
</svg>
