<svg width="21" height="21" viewBox="0 0 21 21" fill="none" xmlns="http://www.w3.org/2000/svg">
<path d="M19 8.98815V6.01315C19 5.48272 18.7893 4.97401 18.4142 4.59894C18.0391 4.22387 17.5304 4.01315 17 4.01315H11V2.70116C11.305 2.42716 11.5 2.03316 11.5 1.59116C11.5 1.19333 11.342 0.8118 11.0607 0.530496C10.7794 0.249191 10.3978 0.091156 10 0.091156C9.60218 0.091156 9.22064 0.249191 8.93934 0.530496C8.65804 0.8118 8.5 1.19333 8.5 1.59116C8.5 2.03316 8.695 2.42716 9 2.70116V4.01315H3C2.46957 4.01315 1.96086 4.22387 1.58579 4.59894C1.21071 4.97401 1 5.48272 1 6.01315V9.01115L0.928 9.01615C0.675888 9.03412 0.439955 9.14697 0.26775 9.33198C0.095544 9.51699 -0.000132994 9.7604 1.38752e-07 10.0132V12.0132C1.38752e-07 12.2784 0.105357 12.5327 0.292893 12.7203C0.48043 12.9078 0.734784 13.0132 1 13.0132V18.0132C1 18.5436 1.21071 19.0523 1.58579 19.4274C1.96086 19.8024 2.46957 20.0132 3 20.0132H17C17.5304 20.0132 18.0391 19.8024 18.4142 19.4274C18.7893 19.0523 19 18.5436 19 18.0132V13.0132C19.2652 13.0132 19.5196 12.9078 19.7071 12.7203C19.8946 12.5327 20 12.2784 20 12.0132V10.0752C20.0116 9.91996 19.9869 9.76419 19.928 9.62015C19.726 9.13215 19.293 9.01515 19 8.98815ZM5 10.0132C5 8.90915 5.672 8.01315 6.5 8.01315C7.328 8.01315 8 8.90915 8 10.0132C8 11.1172 7.328 12.0132 6.5 12.0132C5.672 12.0132 5 11.1172 5 10.0132ZM13.998 16.0132C12.997 16.0102 6.001 16.0132 6 16.0132V14.0132C6 14.0132 13.001 14.0112 14.002 14.0132L13.998 16.0132ZM13.5 12.0132C12.672 12.0132 12 11.1172 12 10.0132C12 8.90915 12.672 8.01315 13.5 8.01315C14.328 8.01315 15 8.90915 15 10.0132C15 11.1172 14.328 12.0132 13.5 12.0132Z" fill="#8A92A6"/>
</svg>
