<svg width="41" height="40" viewBox="0 0 41 40" fill="none" xmlns="http://www.w3.org/2000/svg">
<path d="M28.4819 23.5714C28.1267 23.5714 27.7861 23.7125 27.5349 23.9637C27.2838 24.2149 27.1427 24.5555 27.1427 24.9107C27.1427 25.2659 27.2838 25.6066 27.5349 25.8577C27.7861 26.1089 28.1267 26.25 28.4819 26.25H32.9462C33.3014 26.25 33.6421 26.1089 33.8932 25.8577C34.1444 25.6066 34.2855 25.2659 34.2855 24.9107C34.2855 24.5555 34.1444 24.2149 33.8932 23.9637C33.6421 23.7125 33.3014 23.5714 32.9462 23.5714H28.4819ZM0.356936 5.26786C0.356936 3.96546 0.874313 2.7164 1.79525 1.79546C2.71619 0.874525 3.96525 0.357147 5.26765 0.357147H29.3748C30.6772 0.357147 31.9263 0.874525 32.8472 1.79546C33.7681 2.7164 34.2855 3.96546 34.2855 5.26786V7.51429C35.9806 7.62754 37.5692 8.38081 38.7297 9.62151C39.8901 10.8622 40.5357 12.4976 40.5355 14.1964V32.9464C40.5355 34.7224 39.83 36.4257 38.5742 37.6815C37.3183 38.9373 35.6151 39.6429 33.8391 39.6429H7.06051C5.2845 39.6429 3.58124 38.9373 2.32542 37.6815C1.06959 36.4257 0.364079 34.7224 0.364079 32.9464V14.1964H0.356936V5.71429H0.376579C0.363345 5.56585 0.356791 5.41689 0.356936 5.26786ZM33.8391 10.1786H3.04265V32.9464C3.04265 34.012 3.46596 35.034 4.21945 35.7875C4.97295 36.541 5.99491 36.9643 7.06051 36.9643H33.8391C34.9047 36.9643 35.9266 36.541 36.6801 35.7875C37.4336 35.034 37.8569 34.012 37.8569 32.9464V14.1964C37.8569 13.1308 37.4336 12.1089 36.6801 11.3554C35.9266 10.6019 34.9047 10.1786 33.8391 10.1786ZM31.6069 5.26786C31.6069 4.03572 30.6069 3.03572 29.3748 3.03572H5.26765C4.67565 3.03572 4.1079 3.27089 3.68929 3.6895C3.27068 4.10811 3.03551 4.67586 3.03551 5.26786C3.03551 5.85986 3.27068 6.42762 3.68929 6.84622C4.1079 7.26483 4.67565 7.5 5.26765 7.5H31.6069V5.26786Z" fill="#FEF400"/>
</svg>
